# xmcd
#
# Track frame offsets:
#	150
#	17095
#	34055
#	51287
#	70780
#	88602
#	104895
#	128445
#	145947
#	160290
#	174370
#	196082
#	217300
#	233692
#	247345
#	262710
#	287680
#	303932
#
# Disc length: 4379 seconds
#
# Revision: 10
# Processed by: cddbd v1.5.2PL0 Copyright (c) Steve Scherf et al.
# Submitted via: Jack! The Knife 20 Magnifico
#
DISCID=00111912
DTITLE=Poison - Poison's Greatest Hits 1986-1996
DYEAR=1996
DGENRE=Hard Rock
TTITLE0=Nothin' But A Good Time
TTITLE1=Talk Dirty To Me
TTITLE2=Unskinny Bop
TTITLE3=Every Rose Has Its Thorn
TTITLE4=Fallen Angel
TTITLE5=I Won't Forget You
TTITLE6=Stand
TTITLE7=Ride The Wind
TTITLE8=Look What The Cat Dragged In
TTITLE9=I Want Action
TTITLE10=Life Goes On
TTITLE11=(Flesh and Blood) Sacrifice
TTITLE12=Cry Tough
TTITLE13=Your Mama Don't Dance
TTITLE14=So Tell Me Why
TTITLE15=Something To Believe In
TTITLE16=Sexual Thing
TTITLE17=Lay Your Body Down
EXTD=Myer, Fairbairn, Baron, Zito, Werman, Browde, Purdell
EXTT0=
EXTT1=
EXTT2=
EXTT3=
EXTT4=
EXTT5=
EXTT6=
EXTT7=
EXTT8=
EXTT9=
EXTT10=
EXTT11=
EXTT12=
EXTT13=
EXTT14=
EXTT15=
EXTT16=
EXTT17=
PLAYORDER=
